####
#
# OBJ File Generated by Meshlab
#
####
# Object bandClean.obj
#
# Vertices: 44
# Faces: 88
#
####
mtllib ./bandClean.obj.mtl

vn -0.577351 -0.577350 0.577349
v -10.500000 -0.100000 1.000000
vn 0.577350 -0.577350 0.577350
v 10.500000 -0.100000 1.000000
vn 0.577352 0.577350 0.577350
v 10.500000 0.100000 1.000000
vn -0.577384 0.577283 0.577384
v -10.500000 0.100000 1.000000
vn 0.727809 0.643717 -0.236478
v 8.748140 0.488973 -0.061803
vn -0.405658 0.630263 -0.661975
v 8.440372 0.488973 -0.161803
vn -0.727809 0.643717 -0.236481
v 8.367718 0.488973 -0.061803
vn -0.727809 0.643717 0.236481
v 8.367718 0.488973 0.061803
vn 0.119714 0.643717 -0.755842
v 8.619733 0.488973 -0.190211
vn -0.488965 0.658144 0.572502
v 8.440372 0.488973 0.161803
vn 0.488966 0.658143 -0.572503
v 8.675487 0.488973 -0.161803
vn -0.175762 0.658143 0.732090
v 8.496125 0.488973 0.190211
vn 0.297109 0.630262 0.717283
v 8.619733 0.488973 0.190211
vn 0.717284 0.630263 0.297108
v 8.748140 0.488973 0.061803
vn -0.310561 0.804186 -0.506791
v 8.440372 0.100000 -0.161803
vn -0.590726 0.783711 -0.191939
v 8.367718 0.100000 -0.061803
vn -0.590726 0.783710 0.191940
v 8.367718 0.100000 0.061803
vn 0.097166 0.783710 -0.613479
v 8.619733 0.100000 -0.190211
vn -0.419331 0.763615 0.490972
v 8.440372 0.100000 0.161803
vn 0.419329 0.763618 -0.490969
v 8.675487 0.100000 -0.161803
vn -0.150731 0.763619 0.627827
v 8.496125 0.100000 0.190211
vn 0.590728 0.783710 -0.191938
v 8.748140 0.100000 -0.061803
vn 0.227459 0.804187 0.549132
v 8.619733 0.100000 0.190211
vn 0.549133 0.804186 0.227458
v 8.748140 0.100000 0.061803
vn 0.577351 -0.577350 -0.577349
v 10.500000 -0.100000 -1.000000
vn 0.577350 0.577351 -0.577350
v 10.500000 0.100000 -1.000000
vn -0.577351 0.577351 -0.577349
v -10.500000 0.100000 -1.000000
vn -0.174702 0.824854 0.537676
v -8.818949 0.100000 -0.190211
vn -0.549130 0.804189 0.227456
v -8.690541 0.100000 -0.061803
vn -0.590727 0.783710 -0.191938
v -8.690541 0.100000 0.061803
vn -0.310562 0.804187 -0.506789
v -8.763195 0.100000 0.161803
vn -0.577350 -0.577350 -0.577350
v -10.500000 -0.100000 -1.000000
vn -0.310562 -0.804187 -0.506789
v -8.763195 -0.100000 0.161803
vn 0.097166 -0.783710 -0.613480
v -8.942556 -0.100000 0.190211
vn -0.590728 -0.783709 -0.191938
v -8.690541 -0.100000 0.061803
vn 0.097166 0.783709 -0.613481
v -8.942556 0.100000 0.190211
vn 0.419329 -0.763618 -0.490969
v -8.998310 -0.100000 0.161803
vn -0.549133 -0.804186 0.227458
v -8.690541 -0.100000 -0.061803
vn 0.419329 0.763618 -0.490969
v -8.998310 0.100000 0.161803
vn 0.558387 -0.824853 -0.088439
v -9.070964 -0.100000 0.061803
vn -0.174702 -0.824854 0.537676
v -8.818949 -0.100000 -0.190211
vn 0.558387 0.824853 -0.088439
v -9.070964 0.100000 0.061803
vn 0.346803 0.845487 0.406054
v -8.998310 0.100000 -0.161803
vn 0.346803 -0.845487 0.406054
v -8.998310 -0.100000 -0.161803
# 44 vertices, 0 vertices normals


usemtl material_0
vt 0.375000 0.000000
vt 0.625000 0.000000
vt 0.625000 0.250000
f 1/1/1 2/2/2 3/3/3
vt 0.375000 0.250000
f 1/1/1 3/3/3 4/4/4
vt 0.408159 0.970159
vt 0.351397 0.892034
vt 0.648603 0.892034
f 6/5/6 7/6/7 5/7/5
vt 0.548284 0.992353
f 9/8/9 6/5/6 5/7/5
vt 0.351397 0.795466
f 7/6/7 8/9/8 5/7/5
vt 0.408159 0.717341
f 8/9/8 10/10/10 5/7/5
vt 0.591841 0.970159
f 11/11/11 9/8/9 5/7/5
vt 0.451716 0.695147
f 10/10/10 12/12/12 5/7/5
vt 0.548284 0.695147
f 12/12/12 13/13/13 5/7/5
vt 0.648603 0.795466
f 13/13/13 14/14/14 5/7/5
vt 0.475000 0.322864
vt 0.475000 0.688440
vt 0.450000 0.688440
f 16/15/16 7/16/7 6/17/6
vt 0.450000 0.322864
f 16/15/16 6/17/6 15/18/15
vt 0.412500 0.688440
f 15/18/15 6/17/6 9/19/9
vt 0.412500 0.322864
f 15/18/15 9/19/9 18/20/18
vt 0.500000 0.322864
vt 0.500000 0.688440
f 17/21/17 8/22/8 7/16/7
f 17/21/17 7/16/7 16/15/16
vt 0.525000 0.322864
vt 0.525000 0.688440
f 19/23/19 10/24/10 8/22/8
f 19/23/19 8/22/8 17/21/17
vt 0.400000 0.688440
f 18/20/18 9/19/9 11/25/11
vt 0.400000 0.322864
f 18/20/18 11/25/11 20/26/20
vt 0.537500 0.322864
vt 0.537500 0.688440
f 21/27/21 12/28/12 10/24/10
f 21/27/21 10/24/10 19/23/19
vt 0.375000 0.688440
f 20/26/20 11/25/11 5/29/5
vt 0.375000 0.322864
f 20/26/20 5/29/5 22/30/22
vt 0.625000 0.322864
vt 0.625000 0.688440
vt 0.600000 0.688440
f 22/31/22 5/32/5 14/33/14
vt 0.600000 0.322864
f 22/31/22 14/33/14 24/34/24
vt 0.562500 0.322864
vt 0.562500 0.688440
f 23/35/23 13/36/13 12/28/12
f 23/35/23 12/28/12 21/27/21
f 24/34/24 14/33/14 13/36/13
f 24/34/24 13/36/13 23/35/23
vt 0.875000 0.000000
vt 0.875000 0.250000
f 2/2/2 25/37/25 26/38/26
f 2/2/2 26/38/26 3/3/3
vt 0.600481 0.354775
vt 0.599616 0.367275
vt 0.396541 0.367275
f 19/39/19 17/40/17 30/41/30
vt 0.599616 0.382725
f 30/41/30 17/40/17 16/42/16
vt 0.396541 0.382725
f 30/41/30 16/42/16 29/43/29
vt 0.600481 0.395225
f 29/43/29 16/42/16 15/44/15
vt 0.602616 0.398776
f 29/43/29 15/44/15 18/45/18
vt 0.395012 0.398776
f 28/46/28 29/43/29 18/45/18
vt 0.625000 0.500000
f 28/46/28 18/45/18 26/47/26
vt 0.375000 0.500000
f 28/46/28 26/47/26 27/48/27
vt 0.395676 0.354775
f 30/41/30 31/49/31 19/39/19
vt 0.393541 0.351224
f 19/39/19 31/49/31 36/50/36
vt 0.601144 0.351224
f 19/39/19 36/50/36 21/51/21
f 21/51/21 36/50/36 4/4/4
vt 0.602616 0.351224
f 21/51/21 4/4/4 23/52/23
f 23/52/23 4/4/4 3/3/3
vt 0.604145 0.367275
f 23/52/23 3/3/3 24/53/24
vt 0.604145 0.382725
f 24/53/24 3/3/3 22/54/22
vt 0.603280 0.395225
f 20/55/20 22/54/22 3/3/3
f 20/55/20 3/3/3 26/47/26
f 20/55/20 26/47/26 18/45/18
vt 0.625000 0.750000
f 27/48/27 26/47/26 25/56/25
vt 0.375000 0.750000
f 27/48/27 25/56/25 32/57/32
vt 0.600000 0.397874
vt 0.575000 0.397874
vt 0.575000 0.585844
f 35/58/35 33/59/33 31/60/31
vt 0.600000 0.585844
f 35/58/35 31/60/31 30/61/30
vt 0.537500 0.397874
vt 0.537500 0.585844
f 33/59/33 34/62/34 36/63/36
f 33/59/33 36/63/36 31/60/31
vt 0.625000 0.397874
f 38/64/38 35/58/35 30/61/30
vt 0.625000 0.585844
f 38/64/38 30/61/30 29/65/29
vt 0.525000 0.397874
vt 0.525000 0.585844
f 34/62/34 37/66/37 39/67/39
f 34/62/34 39/67/39 36/63/36
vt 0.412500 0.397874
vt 0.375000 0.397874
vt 0.375000 0.585844
f 41/68/41 38/69/38 29/70/29
vt 0.412500 0.585844
f 41/68/41 29/70/29 28/71/28
vt 0.500000 0.397874
vt 0.500000 0.585844
f 37/66/37 40/72/40 42/73/42
f 37/66/37 42/73/42 39/67/39
vt 0.450000 0.397874
f 44/74/44 41/68/41 28/71/28
vt 0.450000 0.585844
f 44/74/44 28/71/28 43/75/43
f 40/72/40 44/74/44 43/75/43
f 40/72/40 43/75/43 42/73/42
vt 0.125000 0.000000
f 32/76/32 1/1/1 4/4/4
vt 0.125000 0.250000
f 32/76/32 4/4/4 27/77/27
vt 0.393541 0.898776
vt 0.395676 0.895225
f 25/56/25 34/78/34 33/79/33
vt 0.396541 0.882725
f 25/56/25 33/79/33 35/80/35
vt 0.396541 0.867275
f 25/56/25 35/80/35 38/81/38
vt 0.395012 0.851224
f 25/56/25 38/81/38 41/82/41
f 25/56/25 41/82/41 32/57/32
vt 0.375000 1.000000
vt 0.392877 0.854775
f 1/83/1 32/57/32 44/84/44
vt 0.392012 0.882725
f 1/83/1 44/84/44 40/85/40
vt 0.392877 0.895225
f 1/83/1 40/85/40 37/86/37
f 1/83/1 37/86/37 34/78/34
vt 0.625000 1.000000
f 1/83/1 34/78/34 2/87/2
f 2/87/2 34/78/34 25/56/25
f 44/84/44 32/57/32 41/82/41
vt 0.392877 0.354775
f 4/4/4 36/50/36 39/88/39
vt 0.392012 0.367275
f 4/4/4 39/88/39 42/89/42
vt 0.392877 0.395225
f 4/4/4 42/89/42 43/90/43
f 4/4/4 43/90/43 27/48/27
f 27/48/27 43/90/43 28/46/28
# 88 faces, 90 coords texture

# End of File
