# This file uses centimeters as units for non-parametric coordinates.

mtllib square.mtl
g default
v -1.871729 0.515630 1.871729
v -1.871729 0.515630 -1.871729
v -1.615422 0.515630 -1.615422
v -1.615422 0.515630 1.615422
v 1.615422 0.515630 1.615422
v 1.871729 0.515630 1.871729
v 1.615422 0.515630 -1.615422
v 1.871729 0.515630 -1.871729
v 2.400000 0.606612 2.400000
v 2.400000 0.606612 -2.400001
v -2.400000 0.606612 -2.400000
v -1.615422 0.606612 -1.615422
v 1.615422 0.606612 -1.615422
v 1.615422 0.606612 1.615422
v -2.400000 0.606612 2.400000
v -1.615422 0.606612 1.615422
v -1.871729 0.135654 1.871729
v 1.871729 0.135654 1.871729
v 1.871729 0.135654 -1.871729
v -2.400000 0.018554 2.400000
v 2.400000 -0.002505 2.400000
v 2.400000 -0.002505 -2.400000
v -1.871729 0.135654 -1.871729
v -2.400000 0.018554 -2.400000
vt 0.375000 0.500000
vt 0.392117 0.482883
vt 0.375000 0.250000
vt 0.392117 0.267117
vt 0.625000 0.250000
vt 0.607883 0.267117
vt 0.625000 0.500000
vt 0.607883 0.482883
vt 0.584137 0.459137
vt 0.625000 0.500000
vt 0.415863 0.459137
vt 0.375000 0.500000
vt 0.375000 0.250000
vt 0.625000 0.250000
vt 0.415863 0.290863
vt 0.584137 0.290863
vt 0.625000 0.037547
vt 0.375000 0.037547
vt 0.625000 0.201002
vt 0.375000 0.201002
vt 0.875000 0.037547
vt 0.875000 0.201002
vt 0.375000 0.000000
vt 0.625000 0.000000
vt 0.875000 0.000000
vt 0.875000 0.250000
vt 0.375000 0.000000
vt 0.625000 0.000000
vt 0.875000 0.000000
vt 0.875000 0.250000
vt 0.375000 0.750000
vt 0.375000 1.000000
vt 0.625000 0.750000
vt 0.625000 1.000000
vt 0.375000 0.750000
vt 0.625000 0.750000
vt 0.375000 1.000000
vt 0.625000 1.000000
vt 0.125000 0.037547
vt 0.125000 0.201002
vt 0.625000 0.548998
vt 0.375000 0.548998
vt 0.625000 0.712453
vt 0.375000 0.712453
vt 0.125000 0.000000
vt 0.125000 0.250000
vt 0.125000 0.000000
vt 0.125000 0.250000
vt 0.375000 0.500000
vt 0.392117 0.482883
vt 0.375000 0.250000
vt 0.392117 0.267117
vt 0.625000 0.250000
vt 0.607883 0.267117
vt 0.625000 0.500000
vt 0.607883 0.482883
vt 0.584137 0.459137
vt 0.625000 0.500000
vt 0.415863 0.459137
vt 0.375000 0.500000
vt 0.375000 0.250000
vt 0.625000 0.250000
vt 0.415863 0.290863
vt 0.584137 0.290863
vt 0.625000 0.037547
vt 0.375000 0.037547
vt 0.625000 0.201002
vt 0.375000 0.201002
vt 0.875000 0.037547
vt 0.875000 0.201002
vt 0.375000 0.000000
vt 0.625000 0.000000
vt 0.875000 0.000000
vt 0.875000 0.250000
vt 0.375000 0.000000
vt 0.625000 0.000000
vt 0.875000 0.000000
vt 0.875000 0.250000
vt 0.375000 0.750000
vt 0.375000 1.000000
vt 0.625000 0.750000
vt 0.625000 1.000000
vt 0.375000 0.750000
vt 0.625000 0.750000
vt 0.375000 1.000000
vt 0.625000 1.000000
vt 0.125000 0.037547
vt 0.125000 0.201002
vt 0.625000 0.548998
vt 0.375000 0.548998
vt 0.625000 0.712453
vt 0.375000 0.712453
vt 0.125000 0.000000
vt 0.125000 0.250000
vt 0.125000 0.000000
vt 0.125000 0.250000
vn 0.000000 -1.000000 0.000000
vn 0.000000 -1.000000 0.000000
vn 0.000000 -1.000000 0.000000
vn 0.000000 -1.000000 0.000000
vn 0.000000 -1.000000 0.000000
vn 0.000000 -1.000000 0.000000
vn 0.000000 -1.000000 0.000000
vn 0.000000 -1.000000 0.000000
vn 0.000000 -1.000000 0.000000
vn 0.000000 -1.000000 0.000000
vn 0.000000 -1.000000 0.000000
vn 0.000000 -1.000000 0.000000
vn 0.000000 -1.000000 0.000000
vn 0.000000 -1.000000 0.000000
vn 0.000000 -1.000000 0.000000
vn 0.000000 -1.000000 0.000000
vn 0.000000 -1.000000 0.000000
vn 0.000000 -1.000000 0.000000
vn 0.000000 -1.000000 0.000000
vn 0.000000 -1.000000 0.000000
vn 0.000000 -1.000000 0.000000
vn 0.000000 -1.000000 0.000000
vn 0.000000 -1.000000 0.000000
vn 0.000000 -1.000000 0.000000
vn 0.000000 1.000000 0.000000
vn 0.000000 1.000000 0.000000
vn 0.000000 1.000000 0.000000
vn 0.000000 1.000000 0.000000
vn 0.000000 1.000000 0.000000
vn 0.000000 1.000000 0.000000
vn 0.000000 1.000000 0.000000
vn 0.000000 1.000000 0.000000
vn 0.000000 1.000000 0.000000
vn 0.000000 1.000000 0.000000
vn 0.000000 1.000000 0.000000
vn 0.000000 1.000000 0.000000
vn 0.000000 0.000000 -1.000000
vn 0.000000 0.000000 -1.000000
vn 0.000000 0.000000 -1.000000
vn 0.000000 0.000000 -1.000000
vn 0.000000 0.000000 -1.000000
vn 0.000000 0.000000 -1.000000
vn -1.000000 0.000000 0.000000
vn -1.000000 0.000000 0.000000
vn -1.000000 0.000000 0.000000
vn -1.000000 0.000000 0.000000
vn -1.000000 0.000000 0.000000
vn -1.000000 0.000000 0.000000
vn 0.000000 0.000000 -1.000000
vn 0.000000 0.000000 -1.000000
vn 0.000000 0.000000 -1.000000
vn 0.000000 0.000000 -1.000000
vn 0.000000 0.000000 -1.000000
vn 0.000000 0.000000 -1.000000
vn -1.000000 0.000000 0.000000
vn -1.000000 0.000000 0.000000
vn -1.000000 0.000000 0.000000
vn -1.000000 0.000000 0.000000
vn -1.000000 0.000000 0.000000
vn -1.000000 0.000000 0.000000
vn 0.000000 0.000000 1.000000
vn 0.000000 0.000000 1.000000
vn 0.000000 0.000000 1.000000
vn 0.000000 0.000000 1.000000
vn 0.000000 0.000000 1.000000
vn 0.000000 0.000000 1.000000
vn 1.000000 0.000000 0.000000
vn 1.000000 0.000000 0.000000
vn 1.000000 0.000000 0.000000
vn 1.000000 0.000000 0.000000
vn 1.000000 0.000000 0.000000
vn 1.000000 0.000000 0.000000
vn 0.000000 1.000000 0.000000
vn 0.000000 1.000000 0.000000
vn 0.000000 1.000000 0.000000
vn 0.000000 1.000000 0.000000
vn 0.000000 1.000000 0.000000
vn 0.000000 1.000000 0.000000
vn 0.000000 -1.000000 0.000000
vn 0.000000 -1.000000 0.000000
vn 0.000000 -1.000000 0.000000
vn 0.000000 -1.000000 0.000000
vn 0.000000 -1.000000 0.000000
vn 0.000000 -1.000000 0.000000
vn 1.000000 0.000000 0.000000
vn 1.000000 0.000000 0.000000
vn 1.000000 0.000000 0.000000
vn 1.000000 0.000000 0.000000
vn 1.000000 0.000000 0.000000
vn 1.000000 0.000000 0.000000
vn 0.000000 0.000000 1.000000
vn 0.000000 0.000000 1.000000
vn 0.000000 0.000000 1.000000
vn 0.000000 0.000000 1.000000
vn 0.000000 0.000000 1.000000
vn 0.000000 0.000000 1.000000
vn 1.000000 0.000000 0.000000
vn 1.000000 0.000000 0.000000
vn 1.000000 0.000000 0.000000
vn 1.000000 0.000000 0.000000
vn 1.000000 0.000000 0.000000
vn 1.000000 0.000000 0.000000
vn 0.000000 0.000000 1.000000
vn 0.000000 0.000000 1.000000
vn 0.000000 0.000000 1.000000
vn 0.000000 0.000000 1.000000
vn 0.000000 0.000000 1.000000
vn 0.000000 0.000000 1.000000
vn -1.000000 0.000000 0.000000
vn -1.000000 0.000000 0.000000
vn -1.000000 0.000000 0.000000
vn -1.000000 0.000000 0.000000
vn -1.000000 0.000000 0.000000
vn -1.000000 0.000000 0.000000
vn 0.000000 0.000000 -1.000000
vn 0.000000 0.000000 -1.000000
vn 0.000000 0.000000 -1.000000
vn 0.000000 0.000000 -1.000000
vn 0.000000 0.000000 -1.000000
vn 0.000000 0.000000 -1.000000
vn 0.000000 1.000000 0.000000
vn 0.000000 1.000000 0.000000
vn 0.000000 1.000000 0.000000
vn 0.000000 1.000000 0.000000
vn 0.000000 1.000000 0.000000
vn 0.000000 1.000000 0.000000
vn 0.000000 1.000000 0.000000
vn 0.000000 1.000000 0.000000
vn 0.000000 1.000000 0.000000
vn 0.000000 1.000000 0.000000
vn 0.000000 1.000000 0.000000
vn 0.000000 1.000000 0.000000
vn 0.000000 -1.000000 0.000000
vn 0.000000 -1.000000 0.000000
vn 0.000000 -1.000000 0.000000
vn 0.000000 -1.000000 0.000000
vn 0.000000 -1.000000 0.000000
vn 0.000000 -1.000000 0.000000
vn 0.000000 -1.000000 0.000000
vn 0.000000 -1.000000 0.000000
vn 0.000000 -1.000000 0.000000
vn 0.000000 -1.000000 0.000000
vn 0.000000 -1.000000 0.000000
vn 0.000000 -1.000000 0.000000
vn 0.000000 -1.000000 0.000000
vn 0.000000 -1.000000 0.000000
vn 0.000000 -1.000000 0.000000
vn 0.000000 -1.000000 0.000000
vn 0.000000 -1.000000 0.000000
vn 0.000000 -1.000000 0.000000
vn 0.000000 -1.000000 0.000000
vn 0.000000 -1.000000 0.000000
vn 0.000000 -1.000000 0.000000
vn 0.000000 -1.000000 0.000000
vn 0.000000 -1.000000 0.000000
vn 0.000000 -1.000000 0.000000
vn 0.000000 1.000000 0.000000
vn 0.000000 1.000000 0.000000
vn 0.000000 1.000000 0.000000
vn 0.000000 1.000000 0.000000
vn 0.000000 1.000000 0.000000
vn 0.000000 1.000000 0.000000
vn 0.000000 1.000000 0.000000
vn 0.000000 1.000000 0.000000
vn 0.000000 1.000000 0.000000
vn 0.000000 1.000000 0.000000
vn 0.000000 1.000000 0.000000
vn 0.000000 1.000000 0.000000
vn 0.000000 0.000000 -1.000000
vn 0.000000 0.000000 -1.000000
vn 0.000000 0.000000 -1.000000
vn 0.000000 0.000000 -1.000000
vn 0.000000 0.000000 -1.000000
vn 0.000000 0.000000 -1.000000
vn -1.000000 0.000000 0.000000
vn -1.000000 0.000000 0.000000
vn -1.000000 0.000000 0.000000
vn -1.000000 0.000000 0.000000
vn -1.000000 0.000000 0.000000
vn -1.000000 0.000000 0.000000
vn 0.000000 0.000000 -1.000000
vn 0.000000 0.000000 -1.000000
vn 0.000000 0.000000 -1.000000
vn 0.000000 0.000000 -1.000000
vn 0.000000 0.000000 -1.000000
vn 0.000000 0.000000 -1.000000
vn -1.000000 0.000000 0.000000
vn -1.000000 0.000000 0.000000
vn -1.000000 0.000000 0.000000
vn -1.000000 0.000000 0.000000
vn -1.000000 0.000000 0.000000
vn -1.000000 0.000000 0.000000
vn 0.000000 0.000000 1.000000
vn 0.000000 0.000000 1.000000
vn 0.000000 0.000000 1.000000
vn 0.000000 0.000000 1.000000
vn 0.000000 0.000000 1.000000
vn 0.000000 0.000000 1.000000
vn 1.000000 0.000000 0.000000
vn 1.000000 0.000000 0.000000
vn 1.000000 0.000000 0.000000
vn 1.000000 0.000000 0.000000
vn 1.000000 0.000000 0.000000
vn 1.000000 0.000000 0.000000
vn 0.000000 1.000000 0.000000
vn 0.000000 1.000000 0.000000
vn 0.000000 1.000000 0.000000
vn 0.000000 1.000000 0.000000
vn 0.000000 1.000000 0.000000
vn 0.000000 1.000000 0.000000
vn 0.000000 -1.000000 0.000000
vn 0.000000 -1.000000 0.000000
vn 0.000000 -1.000000 0.000000
vn 0.000000 -1.000000 0.000000
vn 0.000000 -1.000000 0.000000
vn 0.000000 -1.000000 0.000000
vn 1.000000 0.000000 0.000000
vn 1.000000 0.000000 0.000000
vn 1.000000 0.000000 0.000000
vn 1.000000 0.000000 0.000000
vn 1.000000 0.000000 0.000000
vn 1.000000 0.000000 0.000000
vn 0.000000 0.000000 1.000000
vn 0.000000 0.000000 1.000000
vn 0.000000 0.000000 1.000000
vn 0.000000 0.000000 1.000000
vn 0.000000 0.000000 1.000000
vn 0.000000 0.000000 1.000000
vn 1.000000 0.000000 0.000000
vn 1.000000 0.000000 0.000000
vn 1.000000 0.000000 0.000000
vn 1.000000 0.000000 0.000000
vn 1.000000 0.000000 0.000000
vn 1.000000 0.000000 0.000000
vn 0.000000 0.000000 1.000000
vn 0.000000 0.000000 1.000000
vn 0.000000 0.000000 1.000000
vn 0.000000 0.000000 1.000000
vn 0.000000 0.000000 1.000000
vn 0.000000 0.000000 1.000000
vn -1.000000 0.000000 0.000000
vn -1.000000 0.000000 0.000000
vn -1.000000 0.000000 0.000000
vn -1.000000 0.000000 0.000000
vn -1.000000 0.000000 0.000000
vn -1.000000 0.000000 0.000000
vn 0.000000 0.000000 -1.000000
vn 0.000000 0.000000 -1.000000
vn 0.000000 0.000000 -1.000000
vn 0.000000 0.000000 -1.000000
vn 0.000000 0.000000 -1.000000
vn 0.000000 0.000000 -1.000000
vn 0.000000 1.000000 0.000000
vn 0.000000 1.000000 0.000000
vn 0.000000 1.000000 0.000000
vn 0.000000 1.000000 0.000000
vn 0.000000 1.000000 0.000000
vn 0.000000 1.000000 0.000000
vn 0.000000 1.000000 0.000000
vn 0.000000 1.000000 0.000000
vn 0.000000 1.000000 0.000000
vn 0.000000 1.000000 0.000000
vn 0.000000 1.000000 0.000000
vn 0.000000 1.000000 0.000000
s off
g squareInset_old:squareInset_braceletSquareInsetinsetOptions1
usemtl initialShadingGroup
f 2/1/1 3/2/2 1/3/3
f 3/2/4 4/4/5 1/3/6
f 1/3/7 4/4/8 6/5/9
f 4/4/10 5/6/11 6/5/12
f 2/1/13 8/7/14 3/2/15
f 3/2/16 8/7/17 7/8/18
f 8/7/19 6/5/20 7/8/21
f 5/6/22 7/8/23 6/5/24
f 13/9/25 10/10/26 12/11/27
f 12/11/28 10/10/29 11/12/30
f 15/13/31 9/14/32 16/15/33
f 16/15/34 9/14/35 14/16/36
f 5/17/37 4/18/38 14/19/39
f 14/19/40 4/18/41 16/20/42
f 7/21/43 5/17/44 13/22/45
f 13/22/46 5/17/47 14/19/48
f 17/23/49 1/3/50 18/24/51
f 18/24/52 1/3/53 6/5/54
f 18/24/55 6/5/56 19/25/57
f 19/25/58 6/5/59 8/26/60
f 20/27/61 21/28/62 15/13/63
f 15/13/64 21/28/65 9/14/66
f 21/28/67 22/29/68 9/14/69
f 9/14/70 22/29/71 10/30/72
f 23/31/73 17/32/74 19/33/75
f 19/33/76 17/32/77 18/34/78
f 24/35/79 22/36/80 20/37/81
f 20/37/82 22/36/83 21/38/84
f 4/18/85 3/39/86 16/20/87
f 16/20/88 3/39/89 12/40/90
f 13/41/91 12/42/92 7/43/93
f 7/43/94 12/42/95 3/44/96
f 23/45/97 2/46/98 17/23/99
f 17/23/100 2/46/101 1/3/102
f 2/1/103 23/31/104 8/7/105
f 8/7/106 23/31/107 19/33/108
f 24/47/109 20/27/110 11/48/111
f 11/48/112 20/27/113 15/13/114
f 11/12/115 10/10/116 24/35/117
f 24/35/118 10/10/119 22/36/120
f 15/13/121 16/15/122 11/12/123
f 11/12/124 16/15/125 12/11/126
f 9/14/127 10/10/128 14/16/129
f 14/16/130 10/10/131 13/9/132
f 2/49/133 3/50/134 1/51/135
f 3/50/136 4/52/137 1/51/138
f 1/51/139 4/52/140 6/53/141
f 4/52/142 5/54/143 6/53/144
f 2/49/145 8/55/146 3/50/147
f 3/50/148 8/55/149 7/56/150
f 8/55/151 6/53/152 7/56/153
f 5/54/154 7/56/155 6/53/156
f 13/57/157 10/58/158 12/59/159
f 12/59/160 10/58/161 11/60/162
f 15/61/163 9/62/164 16/63/165
f 16/63/166 9/62/167 14/64/168
f 5/65/169 4/66/170 14/67/171
f 14/67/172 4/66/173 16/68/174
f 7/69/175 5/65/176 13/70/177
f 13/70/178 5/65/179 14/67/180
f 17/71/181 1/51/182 18/72/183
f 18/72/184 1/51/185 6/53/186
f 18/72/187 6/53/188 19/73/189
f 19/73/190 6/53/191 8/74/192
f 20/75/193 21/76/194 15/61/195
f 15/61/196 21/76/197 9/62/198
f 21/76/199 22/77/200 9/62/201
f 9/62/202 22/77/203 10/78/204
f 23/79/205 17/80/206 19/81/207
f 19/81/208 17/80/209 18/82/210
f 24/83/211 22/84/212 20/85/213
f 20/85/214 22/84/215 21/86/216
f 4/66/217 3/87/218 16/68/219
f 16/68/220 3/87/221 12/88/222
f 13/89/223 12/90/224 7/91/225
f 7/91/226 12/90/227 3/92/228
f 23/93/229 2/94/230 17/71/231
f 17/71/232 2/94/233 1/51/234
f 2/49/235 23/79/236 8/55/237
f 8/55/238 23/79/239 19/81/240
f 24/95/241 20/75/242 11/96/243
f 11/96/244 20/75/245 15/61/246
f 11/60/247 10/58/248 24/83/249
f 24/83/250 10/58/251 22/84/252
f 15/61/253 16/63/254 11/60/255
f 11/60/256 16/63/257 12/59/258
f 9/62/259 10/58/260 14/64/261
f 14/64/262 10/58/263 13/57/264
