# This file uses centimeters as units for non-parametric coordinates.

mtllib triangle.mtl
g default
v -2.886565 0.000000 1.898344
v -0.000031 0.000000 -2.886432
v 2.886560 0.000000 1.898294
v -2.401964 0.137166 1.579647
v 2.401960 0.137166 1.579606
v -0.000025 0.137166 -2.401853
v 2.401960 0.516535 1.579606
v -0.000025 0.516535 -2.401853
v 1.696348 0.523356 1.181445
v 1.696348 0.602064 1.181445
v -0.000018 0.602064 -1.630401
v -0.000018 0.523356 -1.630401
v -0.000031 0.608885 -2.886432
v 2.886560 0.608885 1.898294
v -2.401964 0.516535 1.579647
v -1.696351 0.523356 1.181474
v -1.696351 0.602064 1.181474
v -2.886565 0.608885 1.898344
vt 1.000000 0.000000
vt 0.000000 0.500012
vt 0.999973 1.000000
vt 1.000000 0.000000
vt 0.999973 1.000000
vt 0.000000 0.500012
vt 0.999973 1.000000
vt 0.000000 0.500012
vt 0.999973 1.000000
vt 0.999973 1.000000
vt 0.000000 0.500012
vt 0.000000 0.500012
vt 0.000000 0.500012
vt 0.999973 1.000000
vt 1.000000 0.000000
vt 0.932010 0.085684
vt 0.931988 0.914318
vt 1.000000 0.000000
vt 1.000000 0.000000
vt 0.876799 0.844763
vt 0.876817 0.155241
vt 1.000000 0.000000
vt 0.103376 0.500011
vt 0.187295 0.500010
vn 0.000000 -1.000000 0.000000
vn 0.000000 -1.000000 0.000000
vn 0.000000 -1.000000 0.000000
vn 0.000000 1.000000 0.000000
vn 0.000000 1.000000 0.000000
vn 0.000000 1.000000 0.000000
vn -0.856247 0.000000 0.516567
vn -0.856247 0.000000 0.516567
vn -0.856247 0.000000 0.516567
vn -0.856247 0.000000 0.516567
vn -0.856247 0.000000 0.516567
vn -0.856247 0.000000 0.516567
vn -0.856247 0.000000 0.516567
vn -0.856247 0.000000 0.516567
vn 0.856247 0.000000 -0.516567
vn 0.856247 0.000000 -0.516567
vn 0.856247 0.000000 -0.516567
vn 0.856247 0.000000 -0.516567
vn 0.000000 -0.999961 0.008841
vn -0.007215 -0.999965 -0.004344
vn -0.007209 -0.999965 -0.004354
vn 0.008208 -0.999963 -0.002584
vn 0.008435 -0.999962 -0.002182
vn -0.000009 0.000000 -1.000000
vn -0.000009 0.000000 -1.000000
vn -0.000009 0.000000 -1.000000
vn -0.000009 0.000000 -1.000000
vn -0.000009 0.000000 -1.000000
vn -0.000009 0.000000 -1.000000
vn -0.000009 0.000000 -1.000000
vn -0.000009 0.000000 -1.000000
vn 0.000000 0.999985 0.005430
vn -0.005383 0.999985 -0.000576
vn -0.004741 0.999987 -0.001644
vn 0.003959 0.999988 -0.002941
vn 0.004255 0.999988 -0.002450
vn 0.000009 0.000000 1.000000
vn 0.000009 0.000000 1.000000
vn 0.000009 0.000000 1.000000
vn 0.000009 0.000000 1.000000
vn 0.000000 -0.999961 0.008841
vn 0.000000 0.999985 0.005430
vn 0.856253 0.000000 0.516556
vn 0.856253 0.000000 0.516556
vn 0.856254 0.000000 0.516556
vn 0.856254 0.000000 0.516556
vn 0.856253 0.000000 0.516556
vn 0.856253 0.000000 0.516556
vn 0.856253 0.000000 0.516556
vn 0.856253 0.000000 0.516556
vn -0.856253 0.000000 -0.516556
vn -0.856253 0.000000 -0.516556
vn -0.856253 0.000000 -0.516556
vn -0.856253 0.000000 -0.516556
s off
g triOrig1_triangleBase1
usemtl initialShadingGroup
f 1/1/1 2/2/2 3/3/3
f 4/4/4 5/5/5 6/6/6
s 1
f 5/5/7 7/7/8 6/6/9
f 6/6/9 7/7/8 8/8/10
s 2
f 9/9/11 10/10/12 12/12/13
f 12/12/13 10/10/12 11/11/14
s 3
f 3/3/15 2/2/16 14/14/17
f 14/14/17 2/2/16 13/13/18
s 4
f 8/8/19 7/7/20 9/17/21
f 7/7/20 15/15/22 9/17/21
f 15/15/22 16/16/23 9/17/21
s 5
f 16/18/24 17/19/25 9/9/26
f 9/9/26 17/19/25 10/10/27
s 6
f 4/4/28 15/15/29 5/5/30
f 5/5/30 15/15/29 7/7/31
s 7
f 13/13/32 10/20/33 14/14/34
f 18/22/35 14/14/34 17/21/36
f 10/20/33 17/21/36 14/14/34
s 8
f 1/1/37 3/3/38 18/22/39
f 18/22/39 3/3/38 14/14/40
s 4
f 9/17/21 12/23/41 8/8/19
f 15/15/22 8/8/19 16/16/23
f 8/8/19 12/23/41 16/16/23
s 7
f 10/20/33 13/13/32 11/24/42
f 18/22/35 17/21/36 13/13/32
f 17/21/36 11/24/42 13/13/32
s 9
f 12/12/43 11/11/44 16/18/45
f 16/18/45 11/11/44 17/19/46
s 10
f 6/6/47 8/8/48 4/4/49
f 4/4/49 8/8/48 15/15/50
s 11
f 2/2/51 1/1/52 13/13/53
f 13/13/53 1/1/52 18/22/54
g default
v -2.886565 0.000000 1.898344
v -0.000031 0.000000 -2.886432
v 2.886560 0.000000 1.898294
v -2.401964 0.137166 1.579647
v 2.401960 0.137166 1.579606
v -0.000025 0.137166 -2.401853
v 2.401960 0.516535 1.579606
v -0.000025 0.516535 -2.401853
v 1.696348 0.523356 1.181445
v 1.696348 0.602064 1.181445
v -0.000018 0.602064 -1.630401
v -0.000018 0.523356 -1.630401
v -0.000031 0.608885 -2.886432
v 2.886560 0.608885 1.898294
v -2.401964 0.516535 1.579647
v -1.696351 0.523356 1.181474
v -1.696351 0.602064 1.181474
v -2.886565 0.608885 1.898344
vt 1.000000 0.000000
vt 0.000000 0.500012
vt 0.999973 1.000000
vt 1.000000 0.000000
vt 0.999973 1.000000
vt 0.000000 0.500012
vt 0.999973 1.000000
vt 0.000000 0.500012
vt 0.999973 1.000000
vt 0.999973 1.000000
vt 0.000000 0.500012
vt 0.000000 0.500012
vt 0.000000 0.500012
vt 0.999973 1.000000
vt 1.000000 0.000000
vt 0.932010 0.085684
vt 0.931988 0.914318
vt 1.000000 0.000000
vt 1.000000 0.000000
vt 0.876799 0.844763
vt 0.876817 0.155241
vt 1.000000 0.000000
vt 0.103376 0.500011
vt 0.187295 0.500010
vn 0.000000 -1.000000 0.000000
vn 0.000000 -1.000000 0.000000
vn 0.000000 -1.000000 0.000000
vn 0.000000 1.000000 0.000000
vn 0.000000 1.000000 0.000000
vn 0.000000 1.000000 0.000000
vn -0.856247 0.000000 0.516567
vn -0.856247 0.000000 0.516567
vn -0.856247 0.000000 0.516567
vn -0.856247 0.000000 0.516567
vn -0.856247 0.000000 0.516567
vn -0.856247 0.000000 0.516567
vn -0.856247 0.000000 0.516567
vn -0.856247 0.000000 0.516567
vn 0.856247 0.000000 -0.516567
vn 0.856247 0.000000 -0.516567
vn 0.856247 0.000000 -0.516567
vn 0.856247 0.000000 -0.516567
vn 0.000000 -0.999961 0.008841
vn -0.007215 -0.999965 -0.004344
vn -0.007209 -0.999965 -0.004354
vn 0.008208 -0.999963 -0.002584
vn 0.008435 -0.999962 -0.002182
vn -0.000009 0.000000 -1.000000
vn -0.000009 0.000000 -1.000000
vn -0.000009 0.000000 -1.000000
vn -0.000009 0.000000 -1.000000
vn -0.000009 0.000000 -1.000000
vn -0.000009 0.000000 -1.000000
vn -0.000009 0.000000 -1.000000
vn -0.000009 0.000000 -1.000000
vn 0.000000 0.999985 0.005430
vn -0.005383 0.999985 -0.000576
vn -0.004741 0.999987 -0.001644
vn 0.003959 0.999988 -0.002941
vn 0.004255 0.999988 -0.002450
vn 0.000009 0.000000 1.000000
vn 0.000009 0.000000 1.000000
vn 0.000009 0.000000 1.000000
vn 0.000009 0.000000 1.000000
vn 0.000000 -0.999961 0.008841
vn 0.000000 0.999985 0.005430
vn 0.856253 0.000000 0.516556
vn 0.856253 0.000000 0.516556
vn 0.856254 0.000000 0.516556
vn 0.856254 0.000000 0.516556
vn 0.856253 0.000000 0.516556
vn 0.856253 0.000000 0.516556
vn 0.856253 0.000000 0.516556
vn 0.856253 0.000000 0.516556
vn -0.856253 0.000000 -0.516556
vn -0.856253 0.000000 -0.516556
vn -0.856253 0.000000 -0.516556
vn -0.856253 0.000000 -0.516556
s off
g triOrig1_triangleBase1
f 19/25/55 20/26/56 21/27/57
f 22/28/58 23/29/59 24/30/60
s 1
f 23/29/61 25/31/62 24/30/63
f 24/30/63 25/31/62 26/32/64
s 2
f 27/33/65 28/34/66 30/36/67
f 30/36/67 28/34/66 29/35/68
s 3
f 21/27/69 20/26/70 32/38/71
f 32/38/71 20/26/70 31/37/72
s 4
f 26/32/73 25/31/74 27/41/75
f 25/31/74 33/39/76 27/41/75
f 33/39/76 34/40/77 27/41/75
s 5
f 34/42/78 35/43/79 27/33/80
f 27/33/80 35/43/79 28/34/81
s 6
f 22/28/82 33/39/83 23/29/84
f 23/29/84 33/39/83 25/31/85
s 7
f 31/37/86 28/44/87 32/38/88
f 36/46/89 32/38/88 35/45/90
f 28/44/87 35/45/90 32/38/88
s 8
f 19/25/91 21/27/92 36/46/93
f 36/46/93 21/27/92 32/38/94
s 4
f 27/41/75 30/47/95 26/32/73
f 33/39/76 26/32/73 34/40/77
f 26/32/73 30/47/95 34/40/77
s 7
f 28/44/87 31/37/86 29/48/96
f 36/46/89 35/45/90 31/37/86
f 35/45/90 29/48/96 31/37/86
s 9
f 30/36/97 29/35/98 34/42/99
f 34/42/99 29/35/98 35/43/100
s 10
f 24/30/101 26/32/102 22/28/103
f 22/28/103 26/32/102 33/39/104
s 11
f 20/26/105 19/25/106 31/37/107
f 31/37/107 19/25/106 36/46/108
